<mxfile host="Electron" modified="2023-05-30T15:52:30.135Z" agent="Mozilla/5.0 (Windows NT 10.0; Win64; x64) AppleWebKit/537.36 (KHTML, like Gecko) draw.io/21.2.8 Chrome/112.0.5615.165 Electron/24.2.0 Safari/537.36" etag="ri1lQ9rp-g5VpacTXE1S" version="21.2.8" type="device">
  <diagram name="PÃ¡gina-1" id="9TildvXtCaVZR2-eF9JI">
    <mxGraphModel dx="1863" dy="614" grid="1" gridSize="10" guides="1" tooltips="1" connect="1" arrows="1" fold="1" page="1" pageScale="1" pageWidth="827" pageHeight="1169" math="0" shadow="0">
      <root>
        <mxCell id="0" />
        <mxCell id="1" parent="0" />
        <mxCell id="r5fRY5yPiSc3VJNCR0NC-3" value="&lt;font style=&quot;font-size: 18px;&quot;&gt;&lt;u&gt;:Sistema&lt;/u&gt;&lt;/font&gt;" style="rounded=0;whiteSpace=wrap;html=1;" parent="1" vertex="1">
          <mxGeometry x="210" y="170" width="120" height="60" as="geometry" />
        </mxCell>
        <mxCell id="r5fRY5yPiSc3VJNCR0NC-5" value="" style="endArrow=none;html=1;rounded=0;entryX=0;entryY=0.5;entryDx=0;entryDy=0;" parent="1" target="r5fRY5yPiSc3VJNCR0NC-3" edge="1">
          <mxGeometry width="50" height="50" relative="1" as="geometry">
            <mxPoint x="-80" y="200" as="sourcePoint" />
            <mxPoint x="430" y="270" as="targetPoint" />
          </mxGeometry>
        </mxCell>
        <mxCell id="r5fRY5yPiSc3VJNCR0NC-6" value="&lt;font style=&quot;font-size: 14px;&quot;&gt;seleccionarSucursal(sucursal : String) : Set &amp;lt;String&amp;gt;&lt;/font&gt;" style="text;html=1;strokeColor=none;fillColor=none;align=center;verticalAlign=middle;whiteSpace=wrap;rounded=0;" parent="1" vertex="1">
          <mxGeometry x="-130" y="140" width="370" height="30" as="geometry" />
        </mxCell>
        <mxCell id="r5fRY5yPiSc3VJNCR0NC-7" value="" style="endArrow=classic;html=1;rounded=0;" parent="1" edge="1">
          <mxGeometry width="50" height="50" relative="1" as="geometry">
            <mxPoint x="10" y="180" as="sourcePoint" />
            <mxPoint x="100" y="180" as="targetPoint" />
          </mxGeometry>
        </mxCell>
        <mxCell id="r5fRY5yPiSc3VJNCR0NC-10" value="&lt;font style=&quot;font-size: 18px;&quot;&gt;&lt;u&gt;e:Empresa&lt;/u&gt;&lt;/font&gt;" style="rounded=0;whiteSpace=wrap;html=1;" parent="1" vertex="1">
          <mxGeometry x="670" y="170" width="120" height="60" as="geometry" />
        </mxCell>
        <mxCell id="r5fRY5yPiSc3VJNCR0NC-11" value="" style="endArrow=none;html=1;rounded=0;exitX=1;exitY=0.5;exitDx=0;exitDy=0;entryX=0;entryY=0.5;entryDx=0;entryDy=0;" parent="1" source="r5fRY5yPiSc3VJNCR0NC-3" target="r5fRY5yPiSc3VJNCR0NC-10" edge="1">
          <mxGeometry width="50" height="50" relative="1" as="geometry">
            <mxPoint x="370" y="300" as="sourcePoint" />
            <mxPoint x="420" y="250" as="targetPoint" />
            <Array as="points" />
          </mxGeometry>
        </mxCell>
        <mxCell id="r5fRY5yPiSc3VJNCR0NC-16" value="&lt;font style=&quot;font-size: 18px;&quot;&gt;&lt;u&gt;s:Sucursal&lt;/u&gt;&lt;/font&gt;" style="rounded=0;whiteSpace=wrap;html=1;" parent="1" vertex="1">
          <mxGeometry x="210" y="390" width="120" height="60" as="geometry" />
        </mxCell>
        <mxCell id="r5fRY5yPiSc3VJNCR0NC-17" value="" style="rounded=0;whiteSpace=wrap;html=1;" parent="1" vertex="1">
          <mxGeometry x="215" y="280" width="120" height="60" as="geometry" />
        </mxCell>
        <mxCell id="r5fRY5yPiSc3VJNCR0NC-18" value="&lt;font style=&quot;font-size: 18px;&quot;&gt;&lt;u&gt;:Sucursal&lt;/u&gt;&lt;/font&gt;" style="rounded=0;whiteSpace=wrap;html=1;" parent="1" vertex="1">
          <mxGeometry x="205" y="290" width="120" height="60" as="geometry" />
        </mxCell>
        <mxCell id="r5fRY5yPiSc3VJNCR0NC-19" value="" style="endArrow=none;html=1;rounded=0;exitX=1.018;exitY=0.62;exitDx=0;exitDy=0;exitPerimeter=0;entryX=0.25;entryY=1;entryDx=0;entryDy=0;" parent="1" source="r5fRY5yPiSc3VJNCR0NC-17" target="r5fRY5yPiSc3VJNCR0NC-10" edge="1">
          <mxGeometry width="50" height="50" relative="1" as="geometry">
            <mxPoint x="390" y="420" as="sourcePoint" />
            <mxPoint x="660" y="400" as="targetPoint" />
            <Array as="points">
              <mxPoint x="700" y="317" />
            </Array>
          </mxGeometry>
        </mxCell>
        <mxCell id="r5fRY5yPiSc3VJNCR0NC-20" value="&lt;font style=&quot;font-size: 14px;&quot;&gt;1.1 : s := find(sucursal : String)&lt;/font&gt;" style="text;html=1;align=center;verticalAlign=middle;resizable=0;points=[];autosize=1;strokeColor=none;fillColor=none;" parent="1" vertex="1">
          <mxGeometry x="390" y="260" width="210" height="30" as="geometry" />
        </mxCell>
        <mxCell id="r5fRY5yPiSc3VJNCR0NC-21" value="" style="endArrow=classic;html=1;rounded=0;" parent="1" edge="1">
          <mxGeometry width="50" height="50" relative="1" as="geometry">
            <mxPoint x="551" y="300" as="sourcePoint" />
            <mxPoint x="451" y="300" as="targetPoint" />
          </mxGeometry>
        </mxCell>
        <mxCell id="r5fRY5yPiSc3VJNCR0NC-22" value="" style="endArrow=none;html=1;rounded=0;exitX=1;exitY=0.5;exitDx=0;exitDy=0;entryX=0.75;entryY=1;entryDx=0;entryDy=0;" parent="1" source="r5fRY5yPiSc3VJNCR0NC-16" target="r5fRY5yPiSc3VJNCR0NC-10" edge="1">
          <mxGeometry width="50" height="50" relative="1" as="geometry">
            <mxPoint x="390" y="410" as="sourcePoint" />
            <mxPoint x="440" y="360" as="targetPoint" />
            <Array as="points">
              <mxPoint x="760" y="420" />
            </Array>
          </mxGeometry>
        </mxCell>
        <mxCell id="r5fRY5yPiSc3VJNCR0NC-23" value="&lt;font style=&quot;font-size: 14px;&quot;&gt;1.2 : getNombreSecciones(): Set &amp;lt;String&amp;gt;&lt;/font&gt;" style="text;html=1;strokeColor=none;fillColor=none;align=center;verticalAlign=middle;whiteSpace=wrap;rounded=0;" parent="1" vertex="1">
          <mxGeometry x="380" y="350" width="270" height="30" as="geometry" />
        </mxCell>
        <mxCell id="r5fRY5yPiSc3VJNCR0NC-24" value="" style="endArrow=classic;html=1;rounded=0;" parent="1" edge="1">
          <mxGeometry width="50" height="50" relative="1" as="geometry">
            <mxPoint x="554" y="400" as="sourcePoint" />
            <mxPoint x="454" y="400" as="targetPoint" />
          </mxGeometry>
        </mxCell>
        <mxCell id="r5fRY5yPiSc3VJNCR0NC-27" value="&lt;font style=&quot;font-size: 14px;&quot;&gt;1 : seleccionarSucursal(sucursal : String) : Set &amp;lt;String&amp;gt;&lt;/font&gt;" style="text;html=1;strokeColor=none;fillColor=none;align=center;verticalAlign=middle;whiteSpace=wrap;rounded=0;" parent="1" vertex="1">
          <mxGeometry x="319" y="140" width="370" height="30" as="geometry" />
        </mxCell>
        <mxCell id="r5fRY5yPiSc3VJNCR0NC-28" value="" style="endArrow=classic;html=1;rounded=0;" parent="1" edge="1">
          <mxGeometry width="50" height="50" relative="1" as="geometry">
            <mxPoint x="459" y="180" as="sourcePoint" />
            <mxPoint x="549" y="180" as="targetPoint" />
          </mxGeometry>
        </mxCell>
        <mxCell id="r5fRY5yPiSc3VJNCR0NC-29" value="&lt;br&gt;El sistema recuerda la clave &#39;sucursal&#39;" style="shape=note;whiteSpace=wrap;html=1;backgroundOutline=1;darkOpacity=0.05;fillColor=#fff2cc;strokeColor=#d6b656;" parent="1" vertex="1">
          <mxGeometry x="380" y="20" width="80" height="100" as="geometry" />
        </mxCell>
        <mxCell id="r5fRY5yPiSc3VJNCR0NC-31" value="" style="endArrow=none;dashed=1;html=1;rounded=0;entryX=0;entryY=0.5;entryDx=0;entryDy=0;entryPerimeter=0;exitX=0.75;exitY=0;exitDx=0;exitDy=0;" parent="1" source="r5fRY5yPiSc3VJNCR0NC-3" target="r5fRY5yPiSc3VJNCR0NC-29" edge="1">
          <mxGeometry width="50" height="50" relative="1" as="geometry">
            <mxPoint x="390" y="370" as="sourcePoint" />
            <mxPoint x="440" y="320" as="targetPoint" />
            <Array as="points" />
          </mxGeometry>
        </mxCell>
        <mxCell id="r5fRY5yPiSc3VJNCR0NC-32" value="" style="rounded=0;whiteSpace=wrap;html=1;" parent="1" vertex="1">
          <mxGeometry x="680" y="470" width="120" height="60" as="geometry" />
        </mxCell>
        <mxCell id="r5fRY5yPiSc3VJNCR0NC-33" value="&lt;font style=&quot;font-size: 18px;&quot;&gt;&lt;u&gt;:Seccion&lt;/u&gt;&lt;/font&gt;" style="rounded=0;whiteSpace=wrap;html=1;" parent="1" vertex="1">
          <mxGeometry x="670" y="480" width="120" height="60" as="geometry" />
        </mxCell>
        <mxCell id="r5fRY5yPiSc3VJNCR0NC-34" value="&lt;font style=&quot;font-size: 18px;&quot;&gt;&lt;u&gt;se:Seccion&lt;/u&gt;&lt;/font&gt;" style="rounded=0;whiteSpace=wrap;html=1;" parent="1" vertex="1">
          <mxGeometry x="670" y="580" width="120" height="60" as="geometry" />
        </mxCell>
        <mxCell id="r5fRY5yPiSc3VJNCR0NC-35" value="" style="endArrow=none;html=1;rounded=0;entryX=0.75;entryY=1;entryDx=0;entryDy=0;exitX=0;exitY=0.5;exitDx=0;exitDy=0;" parent="1" source="r5fRY5yPiSc3VJNCR0NC-33" target="r5fRY5yPiSc3VJNCR0NC-16" edge="1">
          <mxGeometry width="50" height="50" relative="1" as="geometry">
            <mxPoint x="390" y="390" as="sourcePoint" />
            <mxPoint x="440" y="340" as="targetPoint" />
            <Array as="points">
              <mxPoint x="300" y="510" />
            </Array>
          </mxGeometry>
        </mxCell>
        <mxCell id="r5fRY5yPiSc3VJNCR0NC-36" value="" style="endArrow=none;html=1;rounded=0;entryX=0.25;entryY=1;entryDx=0;entryDy=0;exitX=0;exitY=0.5;exitDx=0;exitDy=0;" parent="1" source="r5fRY5yPiSc3VJNCR0NC-34" target="r5fRY5yPiSc3VJNCR0NC-16" edge="1">
          <mxGeometry width="50" height="50" relative="1" as="geometry">
            <mxPoint x="390" y="390" as="sourcePoint" />
            <mxPoint x="440" y="340" as="targetPoint" />
            <Array as="points">
              <mxPoint x="240" y="610" />
            </Array>
          </mxGeometry>
        </mxCell>
        <mxCell id="r5fRY5yPiSc3VJNCR0NC-37" value="&lt;font style=&quot;font-size: 14px;&quot;&gt;1.2.1* [foreach] : se := next()&lt;/font&gt;" style="text;html=1;strokeColor=none;fillColor=none;align=center;verticalAlign=middle;whiteSpace=wrap;rounded=0;" parent="1" vertex="1">
          <mxGeometry x="350" y="460" width="260" height="30" as="geometry" />
        </mxCell>
        <mxCell id="r5fRY5yPiSc3VJNCR0NC-38" value="" style="endArrow=classic;html=1;rounded=0;" parent="1" edge="1">
          <mxGeometry width="50" height="50" relative="1" as="geometry">
            <mxPoint x="440" y="499.5" as="sourcePoint" />
            <mxPoint x="530" y="499.5" as="targetPoint" />
          </mxGeometry>
        </mxCell>
        <mxCell id="r5fRY5yPiSc3VJNCR0NC-39" value="&lt;font style=&quot;font-size: 14px;&quot;&gt;1.2.2* : nom := getNombreSeccion() : String&lt;/font&gt;" style="text;html=1;strokeColor=none;fillColor=none;align=center;verticalAlign=middle;whiteSpace=wrap;rounded=0;" parent="1" vertex="1">
          <mxGeometry x="330" y="550" width="280" height="30" as="geometry" />
        </mxCell>
        <mxCell id="r5fRY5yPiSc3VJNCR0NC-40" value="" style="endArrow=classic;html=1;rounded=0;" parent="1" edge="1">
          <mxGeometry width="50" height="50" relative="1" as="geometry">
            <mxPoint x="445" y="590" as="sourcePoint" />
            <mxPoint x="535" y="590" as="targetPoint" />
          </mxGeometry>
        </mxCell>
        <mxCell id="r5fRY5yPiSc3VJNCR0NC-41" value="&lt;br&gt;Devuelve un set de Strings con todos los &#39;nom&#39;" style="shape=note;whiteSpace=wrap;html=1;backgroundOutline=1;darkOpacity=0.05;fillColor=#fff2cc;strokeColor=#d6b656;" parent="1" vertex="1">
          <mxGeometry x="15" y="490" width="80" height="100" as="geometry" />
        </mxCell>
        <mxCell id="r5fRY5yPiSc3VJNCR0NC-42" value="" style="endArrow=none;dashed=1;html=1;rounded=0;exitX=0;exitY=0;exitDx=50;exitDy=0;exitPerimeter=0;entryX=0;entryY=1;entryDx=0;entryDy=0;" parent="1" source="r5fRY5yPiSc3VJNCR0NC-41" target="r5fRY5yPiSc3VJNCR0NC-16" edge="1">
          <mxGeometry width="50" height="50" relative="1" as="geometry">
            <mxPoint x="390" y="450" as="sourcePoint" />
            <mxPoint x="440" y="400" as="targetPoint" />
          </mxGeometry>
        </mxCell>
      </root>
    </mxGraphModel>
  </diagram>
</mxfile>
